<svg width="152" height="152" viewBox="0 0 152 152" fill="none" xmlns="http://www.w3.org/2000/svg">
<path fill-rule="evenodd" clip-rule="evenodd" d="M78.4771 0.142456C69.2971 1.18871 62.4873 3.35167 55.9715 7.29029C44.45 14.2547 35.7288 25.8994 32.6172 38.4732L31.8732 41.4794L28.8682 41.6551C15.4898 42.438 4.30412 51.6049 0.845581 64.6207C0.161304 67.1962 0.0605352 68.1584 0.0542929 72.179C0.0483478 76.2205 0.142577 77.1404 0.821801 79.671C3.22331 88.6168 9.02777 95.6996 17.2254 99.6872C20.2702 101.168 25.6106 102.662 26.7973 102.364C28.0865 102.04 28.9845 100.887 28.9845 99.5544C28.9845 97.6426 28.1453 96.9515 24.8229 96.1288C21.2651 95.2475 19.1602 94.3133 16.339 92.3629C6.59535 85.6276 3.11452 72.6543 8.16188 61.8844C10.5533 56.7821 14.2868 52.8735 19.1867 50.3429C23.3607 48.1867 25.3895 47.7228 30.8251 47.6806C36.5454 47.6363 36.7184 47.5397 37.4568 43.975C39.5396 33.9202 43.0978 26.8318 49.4349 20.1126C59.353 9.59681 74.26 4.3364 88.4333 6.35044C98.6785 7.80629 107.067 12.0151 114.457 19.407C119.232 24.1844 122.372 28.9231 124.704 34.8764C125.089 35.8573 125.577 36.9338 125.79 37.2688C126.002 37.6035 127.549 38.5648 129.228 39.4047C137.089 43.338 142.884 50.4692 145.113 58.9522C145.793 61.5366 145.895 62.5258 145.902 66.5316C145.909 70.5939 145.818 71.4731 145.134 73.9657C142.16 84.7959 134.259 92.7849 123.54 95.8003C121.724 96.3116 120.791 96.7438 120.316 97.2954C119.28 98.4965 119.518 100.53 120.81 101.521C122.636 102.924 130.64 100.216 136.504 96.2117C146.362 89.4809 152.6 76.8453 151.954 64.9147C151.252 51.9283 144.253 40.7729 132.94 34.6065L130.462 33.2556L129.454 30.8147C127.392 25.82 123.292 19.7743 119.006 15.4062C110.831 7.0751 100.402 1.92258 88.6429 0.404615C85.4745 -0.00467359 80.8192 -0.124458 78.4771 0.142456ZM48.6849 49.7496C44.7109 50.8199 40.8297 53.863 39.1383 57.2345C38.1128 59.2791 37.3058 62.3445 37.312 64.1728C37.3236 67.6575 39.0587 71.8321 41.5758 74.4305L43.1376 76.043L41.5375 77.6951C39.4992 79.7995 37.9422 83.0021 37.5144 85.9712C36.9 90.2362 38.4755 95.0085 41.5431 98.1755L43.1376 99.8216L41.5375 101.474C39.0132 104.079 37.3076 108.246 37.3076 111.807C37.3076 113.538 38.1399 116.639 39.1383 118.63C40.2524 120.851 43.0538 123.639 45.3218 124.783C48.6091 126.443 49.7307 126.563 61.9053 126.568L72.9779 126.572L72.9681 130.659L72.958 134.746L71.4177 135.638C65.302 139.178 65.8412 148.366 72.3391 151.341C74.2588 152.22 77.6421 152.22 79.5618 151.341C86.0598 148.366 86.599 139.178 80.4833 135.638L78.9429 134.746L78.9328 130.659L78.923 126.572H90.1562C102.365 126.572 103.25 126.479 106.56 124.848C108.661 123.813 111.84 120.64 112.875 118.547C115.843 112.543 114.832 105.96 110.218 101.25L108.851 99.8543L110.519 98.0534C116.034 92.0971 115.905 83.2765 110.218 77.4712L108.851 76.0757L110.519 74.2748C114.889 69.5551 115.774 63.1833 112.875 57.3174C111.84 55.2243 108.661 52.0514 106.56 51.0167C102.971 49.2479 103.735 49.2904 75.8137 49.3118C54.808 49.3278 49.9604 49.406 48.6849 49.7496ZM103.662 56.2209C105.704 57.2238 107.242 58.9314 108.051 61.0946C109.636 65.3299 107.737 70.0856 103.662 72.0866L101.96 72.9221L76.8422 73.0148C59.2422 73.0796 51.2672 73.0089 50.1965 72.7779C45.7157 71.8113 42.5639 66.9195 43.5288 62.4292C44.2 59.3068 46.6455 56.594 49.6433 55.6461C50.5701 55.353 56.4753 55.2826 76.3964 55.3277L101.96 55.3854L103.662 56.2209ZM52.062 61.6677C50.4239 63.306 51.3679 66.1779 53.6978 66.644C55.4736 66.9992 76.9189 66.8199 78.031 66.4407C78.7253 66.2035 79.2592 65.7344 79.6379 65.0276C80.3136 63.7668 80.1311 62.6596 79.0731 61.6017L78.3556 60.8842H65.6007H52.8459L52.062 61.6677ZM85.737 61.753C85.0937 62.3962 84.8681 62.9039 84.8681 63.7079C84.8681 65.2164 86.1819 66.5316 87.6887 66.5316C89.164 66.5316 89.8917 66.0807 90.4071 64.8475C91.6455 61.8841 88.013 59.4771 85.737 61.753ZM96.1408 61.753C94.9708 62.9229 94.9554 64.3844 96.0995 65.6649C97.5534 67.2922 100.223 66.7117 100.914 64.618C101.864 61.7399 98.2959 59.5981 96.1408 61.753ZM103.662 79.9995C107.737 82.0005 109.636 86.7562 108.051 90.9914C107.242 93.1547 105.704 94.8623 103.662 95.8651L101.96 96.7007L76.8422 96.7934C59.2422 96.8582 51.2672 96.7875 50.1965 96.5565C45.7157 95.5899 42.5639 90.6981 43.5288 86.2078C43.9672 84.1688 45.5248 81.7535 47.1101 80.6549C49.4935 79.0032 48.7274 79.0439 76.3964 79.1063L101.96 79.164L103.662 79.9995ZM52.062 85.4463C50.4239 87.0846 51.3679 89.9565 53.6978 90.4225C55.4736 90.7777 76.9189 90.5985 78.031 90.2192C78.7253 89.982 79.2592 89.513 79.6379 88.8062C80.3136 87.5453 80.1311 86.4381 79.0731 85.3803L78.3556 84.6628H65.6007H52.8459L52.062 85.4463ZM85.737 85.5316C85.0937 86.1748 84.8681 86.6825 84.8681 87.4865C84.8681 88.9949 86.1819 90.3102 87.6887 90.3102C89.164 90.3102 89.8917 89.8593 90.4071 88.6261C91.6455 85.6627 88.013 83.2557 85.737 85.5316ZM96.1408 85.5316C95.002 86.6703 94.9649 88.1163 96.0415 89.3956C97.4273 91.0426 100.23 90.4677 100.914 88.3966C101.864 85.5185 98.2959 83.3766 96.1408 85.5316ZM103.662 103.778C107.737 105.779 109.636 110.535 108.051 114.77C107.242 116.933 105.704 118.641 103.662 119.644L101.96 120.479L76.8422 120.561C60.026 120.616 51.233 120.539 50.2381 120.329C45.7567 119.382 42.5645 114.471 43.5255 110.002C43.9672 107.947 45.5195 105.536 47.1101 104.433C49.4935 102.782 48.7274 102.822 76.3964 102.885L101.96 102.943L103.662 103.778ZM52.062 109.225C50.4239 110.863 51.3679 113.735 53.6978 114.201C55.4736 114.556 76.9189 114.377 78.031 113.998C78.7253 113.761 79.2592 113.292 79.6379 112.585C80.3136 111.324 80.1311 110.217 79.0731 109.159L78.3556 108.441H65.6007H52.8459L52.062 109.225ZM85.737 109.31C85.0937 109.953 84.8681 110.461 84.8681 111.265C84.8681 114.393 89.469 115.181 90.4981 112.229C91.5117 109.321 87.925 107.122 85.737 109.31ZM96.1408 109.31C95.002 110.449 94.9649 111.895 96.0415 113.174C97.4273 114.821 100.23 114.246 100.914 112.175C101.864 109.297 98.2959 107.155 96.1408 109.31ZM1.78579 140.526C-0.106521 141.301 -0.609474 143.781 0.833096 145.224L1.65054 146.041L29.1301 146.12L56.6094 146.199L57.5784 145.333C58.3816 144.616 58.5478 144.253 58.5478 143.217C58.5478 142.183 58.3813 141.819 57.5835 141.107L56.6195 140.245L29.4999 140.264C14.584 140.274 2.11277 140.392 1.78579 140.526ZM78.0244 141.293C79.7708 143.038 78.4421 146.028 75.9202 146.028C74.911 146.028 74.5466 145.855 73.807 145.028C73.0624 144.194 72.9414 143.855 73.0817 142.991C73.4972 140.43 76.224 139.493 78.0244 141.293ZM94.8261 140.524C93.8873 140.912 93.1802 141.866 92.9977 142.991C92.8574 143.856 92.9783 144.194 93.7289 145.034L94.6287 146.041H122.439H150.25L151.068 145.224C152.208 144.083 152.208 142.352 151.068 141.211L150.25 140.394L122.835 140.336C107.757 140.304 95.153 140.389 94.8261 140.524Z" fill="white"/>
</svg>
