<svg width="139" height="152" viewBox="0 0 139 152" fill="none" xmlns="http://www.w3.org/2000/svg">
<path fill-rule="evenodd" clip-rule="evenodd" d="M21.741 0.477394C18.6798 1.4214 16.0387 4.10914 15.1171 7.21842C14.8453 8.13452 14.6693 9.91952 14.6693 11.7562V14.7835L11.039 14.9079C7.91607 15.0148 7.1749 15.14 5.73494 15.8038C3.6119 16.7829 1.78817 18.6044 0.784732 20.7483L0 22.4249V80.7573V139.09L0.876896 140.825C1.96835 142.985 4.11362 144.953 6.24881 145.753C7.8654 146.359 8.17864 146.363 56.2995 146.363H104.723L106.083 147.541C109.042 150.107 112.45 151.995 114.131 152C116.711 152.008 120.658 149.528 124.926 145.217C131.265 138.814 136.355 129.269 138.293 120.147C139.152 116.106 139.249 109.585 138.471 108.161C137.582 106.532 135.993 105.496 126.541 100.379L117.354 95.4057L117.206 61.1131C117.077 31.3003 117 26.7507 116.616 26.287C115.99 25.5324 87.0519 0.831248 86.2805 0.393681C85.2652 -0.182222 23.6205 -0.102367 21.741 0.477394ZM81.9983 14.1871C82.0975 22.3911 82.1011 22.4317 82.8879 24.1229C84.4977 27.5825 87.8269 30.1666 91.5659 30.8592C92.5776 31.0465 97.0857 31.1822 102.295 31.1822H111.279L111.278 63.317L111.276 95.4517L102.196 100.35C97.2022 103.044 92.5918 105.624 91.9508 106.083C90.1476 107.374 89.6598 108.779 89.6521 112.705C89.645 116.239 90.1814 120.063 91.1317 123.254C91.4554 124.341 91.72 125.309 91.72 125.406C91.72 125.503 87.4392 125.583 82.2072 125.583H72.6944L71.6868 126.592C70.6087 127.672 70.4309 128.571 71.0334 129.895C71.7502 131.472 72.1218 131.52 83.6297 131.521L94.239 131.522L95.2578 133.495C95.8182 134.581 96.979 136.551 97.8375 137.873L99.3987 140.277L54.1916 140.352C3.83683 140.436 7.66803 140.595 6.4201 138.371L5.7788 137.228L5.7794 80.7169C5.77969 27.5027 5.80992 24.1467 6.29801 23.1881C7.23951 21.3381 8.10455 20.9531 11.5751 20.8394L14.6628 20.7385L14.7401 72.3506L14.8174 123.963L15.793 125.948C16.854 128.107 18.3704 129.614 20.5737 130.702C21.9103 131.362 22.1198 131.373 35.0545 131.457L48.1789 131.543L49.057 130.664C50.2054 129.513 50.2738 127.792 49.22 126.564L48.5049 125.731L35.9053 125.583C23.7506 125.44 23.2761 125.413 22.4695 124.819C22.0098 124.481 21.3997 123.747 21.114 123.187C20.6238 122.226 20.5989 119 20.6694 65.4166L20.7444 8.66471L21.3582 7.82638C21.6957 7.36537 22.4292 6.75473 22.9881 6.46945C23.9349 5.98557 25.9779 5.95025 52.9513 5.94995L81.8987 5.94936L81.9983 14.1871ZM98.6359 18.664L105.996 24.9482H98.9945C90.9868 24.9482 90.336 24.7923 88.8309 22.5161C88.0198 21.2891 88.015 21.2532 87.9187 15.3481L87.8218 9.41338L89.5486 10.8965C90.4984 11.7122 94.5878 15.2077 98.6359 18.664ZM31.6797 18.2392C30.5429 19.378 30.3938 20.3772 31.1655 21.6857C31.437 22.1462 31.9766 22.6677 32.3649 22.845C32.85 23.0661 39.2342 23.1671 52.7593 23.1671H72.4478L73.4089 22.3068C74.2043 21.5949 74.3702 21.2316 74.3702 20.1985C74.3702 19.1654 74.2043 18.8021 73.4089 18.0902L72.4478 17.2299H52.5676H32.6873L31.6797 18.2392ZM32.5984 35.7496C31.4337 36.2582 30.9726 36.8474 30.7918 38.0577C30.5799 39.4758 31.5123 40.8547 32.9534 41.2554C34.6118 41.7168 62.1956 41.6526 63.5668 41.1845C64.3051 40.9322 64.7632 40.5038 65.1559 39.6984C65.6502 38.6847 65.665 38.4528 65.2966 37.472C64.4849 35.31 64.7096 35.3376 48.1567 35.3504C36.7473 35.359 33.2898 35.4477 32.5984 35.7496ZM77.1343 39.9552C73.4365 40.8532 69.4855 43.6903 67.4007 46.945C66.0932 48.9856 65.0895 51.8791 64.8583 54.2732C64.6678 56.2449 64.6524 56.2731 63.4495 56.8796C62.6988 57.2578 61.9778 57.9397 61.5659 58.6608C60.9012 59.8244 60.8988 59.8743 60.9732 71.4063L61.0479 82.9837L61.7594 83.9832C62.1509 84.5327 63.0177 85.2312 63.6857 85.5352C64.8222 86.052 65.9418 86.088 81.0627 86.0942L97.225 86.1007L98.5301 85.4328C99.2476 85.0653 100.109 84.3879 100.445 83.9268C101.037 83.1135 101.055 82.7326 101.055 71.1388V59.1889L100.239 58.1178C99.7908 57.5288 98.9574 56.8778 98.3872 56.6712C97.5047 56.3515 97.3506 56.1583 97.3506 55.371C97.3506 50.0834 93.6071 43.9978 88.7974 41.4659C85.2202 39.5829 80.9468 39.0293 77.1343 39.9552ZM85.6039 46.5766C88.7411 48.1235 90.8431 51.071 91.2971 54.5597L91.5001 56.1182H81.0897C72.1906 56.1182 70.6792 56.0555 70.6792 55.6874C70.6792 54.8132 71.3576 52.0836 71.7893 51.22C74.343 46.1141 80.4818 44.0506 85.6039 46.5766ZM32.1207 54.1886C30.4202 55.1142 30.3064 57.5852 31.902 58.9303L32.7919 59.6805H41.9369C47.0312 59.6805 51.4115 59.5549 51.8264 59.397C52.8556 59.0048 53.6122 57.7355 53.576 56.4613C53.5535 55.6622 53.3132 55.184 52.6248 54.5677L51.7034 53.7433L42.2991 53.7552C34.7546 53.7647 32.7415 53.8505 32.1207 54.1886ZM95.2762 71.1095V80.1636H81.0514H66.8267V71.1095V62.0553H81.0514H95.2762V71.1095ZM80.2465 67.0208C79.8853 67.0867 79.252 67.5427 78.8389 68.0346C78.1831 68.8153 78.0879 69.2072 78.0879 71.1276C78.0879 73.1343 78.1629 73.4107 78.9468 74.2891C79.6574 75.0858 80.0201 75.2521 81.0514 75.2521C82.0827 75.2521 82.4455 75.0858 83.1561 74.2891C83.9411 73.4092 84.0149 73.1361 84.0149 71.1095C84.0149 69.0988 83.9391 68.8118 83.2 68.0257C82.3637 67.1366 81.4035 66.8098 80.2465 67.0208ZM32.7466 72.0612C31.867 72.3833 30.9741 73.449 30.7987 74.3862C30.593 75.4845 31.2515 77.0083 32.1376 77.483C32.495 77.6747 36.2933 77.7887 42.318 77.7887H51.9283L52.6766 77.0395C53.6163 76.0981 53.8469 74.9442 53.3393 73.7268C52.5871 71.9237 52.1367 71.8489 42.1705 71.875C37.2318 71.8878 32.991 71.9718 32.7466 72.0612ZM32.0798 90.5773C30.5376 91.4771 30.3538 94.0274 31.7375 95.33L32.4973 96.0454L43.2847 96.1303C55.3432 96.225 55.518 96.1995 56.3347 94.242C56.8531 92.9994 56.6412 92.0091 55.644 91.0098L54.8918 90.2567L43.7453 90.2656C36.7268 90.2716 32.4063 90.3867 32.0798 90.5773ZM123.752 105.678L133.061 110.708L133.153 112.098C133.291 114.197 132.395 119.694 131.393 122.889C130.202 126.684 127.125 132.831 124.769 136.121C122.347 139.504 119.28 142.665 116.571 144.571L114.457 146.058L113.286 145.398C105.722 141.14 97.812 128.451 96.0298 117.716C95.7589 116.083 95.5785 113.827 95.6288 112.701L95.7207 110.655L104.908 105.669C109.96 102.926 114.173 100.674 114.269 100.665C114.365 100.655 118.633 102.911 123.752 105.678ZM31.8904 109.125C30.3423 110.43 30.3761 112.486 31.9663 113.776C32.5522 114.251 34.1791 114.289 54.1806 114.296L75.7628 114.302L76.629 113.434C78.0219 112.039 77.6176 109.516 75.8736 108.72C75.2943 108.455 69.7125 108.365 53.9444 108.365H32.7919L31.8904 109.125ZM121.503 114.352C121.177 114.532 118.96 116.699 116.577 119.167L112.244 123.653L110.502 121.997C109.544 121.086 108.394 120.248 107.947 120.136C105.978 119.642 103.813 121.754 104.299 123.694C104.563 124.75 110.048 130.048 111.362 130.516C113.086 131.131 113.757 130.651 119.557 124.656C122.583 121.529 125.221 118.688 125.419 118.343C125.865 117.567 125.9 116.231 125.495 115.473C124.849 114.264 122.734 113.67 121.503 114.352ZM58.5037 126.409C57.6698 127.156 57.505 127.509 57.505 128.551C57.505 129.584 57.671 129.948 58.4664 130.66C59.7819 131.837 61.2239 131.834 62.4043 130.652C64.1883 128.865 63.2225 126.016 60.7189 125.679C59.6633 125.538 59.3697 125.634 58.5037 126.409Z" fill="white"/>
</svg>
