<svg width="152" height="153" viewBox="0 0 152 153" fill="none" xmlns="http://www.w3.org/2000/svg">
<path fill-rule="evenodd" clip-rule="evenodd" d="M1.89829 0.253431C1.55328 0.393614 0.984806 0.874243 0.635339 1.3211L0 2.1335V76.514V150.895L0.867128 151.871L1.73426 152.847L75.8948 152.923L150.055 153L151.028 152.126L152 151.252V100.39V49.5286L151.019 48.6474L150.039 47.766L137.102 47.85L124.166 47.9337L123.299 48.9099L122.432 49.8861V98.4523V147.018H119.019H115.606L115.527 116.207L115.449 85.3964L114.468 84.5149L113.487 83.6338L100.551 83.7178L87.6144 83.8015L86.7476 84.7777L85.8807 85.7539V116.386V147.018H82.4663H79.0519L78.9746 104.251L78.8974 61.4845L77.9167 60.6031L76.9361 59.7219L63.9996 59.8059L51.0631 59.8896L50.1963 60.8658L49.3294 61.842V104.43V147.018H45.9177H42.5059L42.426 125.174L42.346 103.33L41.3654 102.449L40.3848 101.568L27.4795 101.652L14.5742 101.735L13.7504 102.564L12.9267 103.393L12.8467 125.205L12.7668 147.018H9.35684H5.94687L5.8708 74.3617L5.79472 1.70488L4.82418 0.832696C3.84145 -0.0505483 3.03792 -0.209562 1.89829 0.253431ZM132.61 0.403478C130.287 1.06105 128.752 1.944 127.172 3.53294C123.751 6.97505 122.715 12.3582 124.655 16.6199C125.104 17.6075 125.306 18.41 125.155 18.6082C124.413 19.5826 106.574 43.1636 106.53 43.2296C106.501 43.2727 105.858 43.0326 105.102 42.6961C101.743 41.2019 96.371 41.8828 93.8356 44.1242C93.1907 44.6942 94.1238 45.4522 83.8475 36.0103L75.425 28.2716L75.6755 26.8939C76.8339 20.5193 73.9808 14.9682 68.4229 12.782C66.0358 11.8432 62.3396 11.8432 59.9525 12.782C55.1934 14.6537 52.4428 18.8344 52.4592 24.1713C52.4657 26.289 52.5997 27.0003 53.2654 28.4446L54.0639 30.1773L44.2235 42.1939C38.8116 48.8032 34.1615 54.45 33.8902 54.7423C33.4186 55.2513 33.3339 55.245 31.9283 54.6018C29.8586 53.6543 25.8361 53.6659 23.4012 54.626C16.3206 57.4183 13.6616 66.02 17.8929 72.4454C20.0138 75.6661 23.5254 77.4807 27.6364 77.4807C34.5172 77.4807 39.3863 72.4735 39.3649 65.4192C39.3583 63.3015 39.2243 62.5902 38.5587 61.1459L37.7602 59.4132L47.6005 47.3966C53.0125 40.7873 57.6625 35.1405 57.9338 34.8482C58.4057 34.3389 58.4857 34.3425 59.8137 34.9334C63.1833 36.4327 68.5519 35.7554 71.0911 33.5103C71.736 32.9403 70.8029 32.1823 81.0792 41.6242L89.5017 49.363L89.2512 50.7406C88.0928 57.1152 90.9459 62.6664 96.5038 64.8525C98.8909 65.7914 102.587 65.7914 104.974 64.8525C109.733 62.9808 112.484 58.8001 112.468 53.4633C112.461 51.3357 112.328 50.6363 111.649 49.1627C111.164 48.1094 110.94 47.2692 111.091 47.0705C111.834 46.0961 129.672 22.5151 129.716 22.449C129.746 22.406 130.425 22.6708 131.227 23.0378C133.285 23.98 137.314 23.9662 139.743 23.0086C146.823 20.2162 149.482 11.6146 145.251 5.18914C142.67 1.26968 137.057 -0.855182 132.61 0.403478ZM138.661 6.89136C139.22 7.27156 140.043 8.10907 140.49 8.7526C141.177 9.74285 141.302 10.2286 141.302 11.9164C141.302 13.6043 141.177 14.09 140.49 15.0803C139.136 17.0294 137.804 17.745 135.529 17.745C133.99 17.745 133.335 17.5946 132.441 17.0357C130.209 15.6392 129.135 12.8364 129.833 10.2271C130.225 8.76545 132.176 6.66868 133.537 6.24634C135.005 5.79082 137.506 6.10556 138.661 6.89136ZM67.3418 18.8473C67.9005 19.2275 68.7233 20.065 69.17 20.7085C69.8561 21.6967 69.9821 22.1842 69.9797 23.847C69.9765 26.1311 69.2122 27.5533 67.2616 28.9043C65.6818 29.9983 62.7975 30.0395 61.1218 28.9916C58.8889 27.5951 57.8153 24.7924 58.5136 22.183C58.905 20.7214 60.8559 18.6246 62.2175 18.2023C63.6855 17.7467 66.1867 18.0615 67.3418 18.8473ZM104.003 48.7921C105.782 49.976 106.534 51.4595 106.534 53.7876C106.534 55.4477 106.407 55.9394 105.721 56.926C104.364 58.8817 103.038 59.5907 100.739 59.5907C98.4401 59.5907 97.1145 58.8817 95.7567 56.926C95.0706 55.9379 94.9446 55.4504 94.947 53.7876C94.9493 52.1502 95.0819 51.6263 95.7362 50.6704C96.541 49.4951 98.0642 48.2837 99.112 47.986C100.369 47.6291 102.877 48.0422 104.003 48.7921ZM146.205 100.39V147.018H137.29H128.375V100.39V53.7622H137.29H146.205V100.39ZM30.9007 60.748C32.6799 61.932 33.4311 63.4154 33.4311 65.7435C33.4311 67.4036 33.3039 67.8953 32.6186 68.882C31.2609 70.8377 29.9352 71.5466 27.6364 71.5466C26.0204 71.5466 25.4617 71.4106 24.564 70.7994C22.2806 69.2448 21.2702 66.6145 21.9623 64.0288C22.3537 62.5671 24.3045 60.4704 25.6662 60.048C27.1775 59.579 29.6393 59.9081 30.9007 60.748ZM73.1026 106.368V147.018H64.1877H55.2727V106.368V65.7181H64.1877H73.1026V106.368ZM136.217 77.967C135.872 78.1072 135.303 78.5878 134.954 79.0346C134.328 79.8357 134.319 80.0237 134.319 92.6545V105.462L135.136 106.374C135.649 106.947 136.352 107.35 137.027 107.457C137.933 107.602 138.257 107.488 139.107 106.724L140.113 105.82V92.619V79.4184L139.143 78.5462C138.16 77.663 137.357 77.504 136.217 77.967ZM109.654 118.324V147.018H100.739H91.8241V118.324V89.63H100.739H109.654V118.324ZM36.5513 127.291V147.018H27.6364H18.7214V127.291V107.564H27.6364H36.5513V127.291ZM136.217 113.835C135.281 114.215 134.319 115.6 134.319 116.566C134.319 117.763 135.684 119.199 137.027 119.413C137.932 119.558 138.257 119.444 139.1 118.686C139.935 117.936 140.1 117.58 140.1 116.531C140.1 115.491 139.934 115.125 139.136 114.408C138.16 113.53 137.355 113.372 136.217 113.835Z" fill="white"/>
</svg>
