<svg width="50px" height="50px" fill="#1d13ed" xmlns="http://www.w3.org/2000/svg" xmlns:xlink="http://www.w3.org/1999/xlink" version="1.1" x="0px" y="0px" viewBox="0 0 480 480" style="enable-background:new 0 0 480 480" xml:space="preserve">
<g><g><path d="M458.504,401.912C461.968,396.8,464,390.632,464,384c0-17.648-14.352-32-32-32s-32,14.352-32,32    c0,6.632,2.032,12.8,5.496,17.912c-9.168,3.216-16.376,10.416-19.584,19.584c-2.264-1.536-4.784-2.664-7.416-3.584    C381.968,412.8,384,406.632,384,400c0-17.648-14.352-32-32-32s-32,14.352-32,32c0,6.632,2.032,12.8,5.496,17.912    c-2.624,0.92-5.152,2.048-7.416,3.584c-3.216-9.168-10.416-16.376-19.584-19.584C301.968,396.8,304,390.632,304,384    c0-17.648-14.352-32-32-32s-32,14.352-32,32c0,6.632,2.032,12.8,5.496,17.912C233.024,406.288,224,418.048,224,432v24    c0,4.424,3.576,8,8,8h72v8c0,4.424,3.576,8,8,8h80c4.424,0,8-3.576,8-8v-8h72c4.424,0,8-3.576,8-8v-24    C480,418.048,470.976,406.288,458.504,401.912z M272,368c8.824,0,16,7.176,16,16c0,8.824-7.176,16-16,16c-8.824,0-16-7.176-16-16    C256,375.176,263.176,368,272,368z M304,448h-64v-16c0-8.824,7.176-16,16-16h32c8.824,0,16,7.176,16,16V448z M352,384    c8.824,0,16,7.176,16,16c0,8.824-7.176,16-16,16c-8.824,0-16-7.176-16-16C336,391.176,343.176,384,352,384z M384,456v8h-64v-8v-8    c0-8.824,7.176-16,16-16h32c8.824,0,16,7.176,16,16V456z M432,368c8.824,0,16,7.176,16,16c0,8.824-7.176,16-16,16    c-8.824,0-16-7.176-16-16C416,375.176,423.176,368,432,368z M464,448h-64v-16c0-8.824,7.176-16,16-16h32c8.824,0,16,7.176,16,16    V448z"></path></g><g><path d="M245.656,258.344l-40-40C204.16,216.84,202.128,216,200,216h-40v-40c0-4.424-3.576-8-8-8H8c-4.424,0-8,3.576-8,8v104v56    c0,4.424,3.576,8,8,8h25.136c3.576,13.768,15.992,24,30.864,24s27.288-10.232,30.864-24h66.272c3.576,13.768,15.992,24,30.864,24    s27.288-10.232,30.864-24H240c4.424,0,8-3.576,8-8v-72C248,261.872,247.16,259.84,245.656,258.344z M16,184h128v40v48H16V184z     M64,352c-8.824,0-16-7.176-16-16c0-8.824,7.176-16,16-16s16,7.176,16,16C80,344.824,72.824,352,64,352z M192,352    c-8.824,0-16-7.176-16-16c0-8.824,7.176-16,16-16c8.824,0,16,7.176,16,16C208,344.824,200.824,352,192,352z M232,328h-9.016    c-0.28-1.088-0.712-2.112-1.104-3.16c-0.192-0.512-0.32-1.04-0.536-1.544c-0.768-1.76-1.672-3.448-2.728-5.024    c-0.232-0.352-0.528-0.656-0.784-1c-0.872-1.208-1.8-2.36-2.832-3.432c-0.472-0.488-0.984-0.912-1.48-1.368    c-0.92-0.84-1.856-1.64-2.872-2.368c-0.592-0.432-1.2-0.824-1.824-1.208c-1.032-0.64-2.096-1.216-3.208-1.744    c-0.656-0.312-1.304-0.624-1.992-0.896c-1.224-0.48-2.496-0.848-3.784-1.176c-0.624-0.16-1.216-0.36-1.848-0.48    c-1.944-0.368-3.936-0.6-5.992-0.6c-2.056,0-4.048,0.232-6,0.608c-0.632,0.12-1.232,0.328-1.848,0.48    c-1.296,0.328-2.56,0.696-3.784,1.176c-0.68,0.272-1.328,0.584-1.992,0.896c-1.104,0.528-2.176,1.096-3.208,1.744    c-0.624,0.392-1.232,0.776-1.824,1.208c-1.008,0.728-1.952,1.528-2.872,2.368c-0.496,0.456-1.008,0.88-1.48,1.368    c-1.032,1.072-1.96,2.224-2.832,3.432c-0.248,0.344-0.544,0.648-0.784,1c-1.056,1.584-1.968,3.264-2.728,5.024    c-0.216,0.496-0.344,1.032-0.536,1.544c-0.392,1.04-0.824,2.064-1.104,3.16H94.976c-0.28-1.088-0.712-2.112-1.104-3.16    c-0.192-0.512-0.32-1.04-0.536-1.544c-0.768-1.76-1.672-3.448-2.728-5.024c-0.232-0.352-0.528-0.656-0.784-1    c-0.872-1.208-1.8-2.36-2.832-3.432c-0.472-0.488-0.984-0.912-1.48-1.368c-0.92-0.84-1.856-1.64-2.872-2.368    c-0.592-0.432-1.2-0.824-1.824-1.208c-1.032-0.64-2.096-1.216-3.208-1.744c-0.656-0.312-1.304-0.624-1.992-0.896    c-1.224-0.48-2.496-0.848-3.784-1.176c-0.624-0.16-1.216-0.36-1.848-0.48C68.048,304.232,66.056,304,64,304    c-2.056,0-4.048,0.232-6,0.608c-0.632,0.12-1.232,0.328-1.848,0.48c-1.296,0.328-2.56,0.696-3.784,1.176    c-0.68,0.272-1.328,0.584-1.992,0.896c-1.104,0.528-2.176,1.096-3.208,1.744c-0.624,0.392-1.232,0.776-1.824,1.208    c-1.008,0.728-1.952,1.528-2.872,2.368c-0.496,0.456-1.008,0.88-1.48,1.368c-1.032,1.072-1.96,2.224-2.832,3.432    c-0.248,0.344-0.544,0.648-0.784,1c-1.056,1.584-1.968,3.264-2.728,5.024c-0.216,0.496-0.344,1.032-0.536,1.544    c-0.384,1.04-0.816,2.064-1.096,3.152H16v-40h136c4.424,0,8-3.576,8-8v-48h36.688L232,267.312V328z"></path></g><g><path d="M472,0h-48c-4.424,0-8,3.576-8,8v91.568l-48,30V104c0-2.904-1.576-5.584-4.128-7c-2.528-1.4-5.648-1.336-8.12,0.216    L304,129.568V104c0-2.904-1.576-5.584-4.128-7c-2.536-1.4-5.648-1.336-8.12,0.216l-64,40C225.424,138.68,224,141.24,224,144v64    c0,4.424,3.576,8,8,8h64h64h64h48c4.424,0,8-3.576,8-8v-80V8C480,3.576,476.424,0,472,0z M288,144v56h-48v-51.56l48-30V144z     M352,144v56h-48v-51.56l48-30V144z M416,128v72h-48v-51.56l48-30V128z M464,200h-32v-64h32V200z M464,120h-32v-16V16h32V120z"></path></g><g><rect x="320" y="160" width="16" height="24"></rect></g><g><rect x="384" y="160" width="16" height="24"></rect></g><g><rect x="256" y="160" width="16" height="24"></rect></g><g><path d="M429.56,262.608c-0.8,5.056-1.824,10.128-3.032,15.048l15.544,3.8c1.304-5.344,2.408-10.832,3.288-16.304L429.56,262.608z    "></path></g><g><path d="M432,232c0,5.152-0.2,10.312-0.608,15.344l15.952,1.28C447.784,243.168,448,237.568,448,232H432z"></path></g><g><path d="M410.344,320.672c-2.344,4.512-4.912,8.992-7.64,13.32l13.544,8.512c2.952-4.696,5.744-9.544,8.28-14.44L410.344,320.672z    "></path></g><g><path d="M422.296,292.416c-1.608,4.84-3.432,9.672-5.416,14.368l14.736,6.232c2.152-5.08,4.128-10.32,5.864-15.568    L422.296,292.416z"></path></g><g><path d="M103.568,82.992c-4.176,3.64-8.248,7.48-12.096,11.4l11.424,11.2c3.552-3.624,7.312-7.168,11.184-10.536L103.568,82.992z"></path></g><g><path d="M306.296,42.792L301.2,57.96c4.816,1.608,9.632,3.456,14.336,5.472l6.312-14.704    C316.736,46.544,311.504,44.544,306.296,42.792z"></path></g><g><path d="M130.32,63.232c-4.672,2.904-9.304,6.048-13.776,9.344l9.512,12.872c4.12-3.048,8.392-5.952,12.696-8.624L130.32,63.232z"></path></g><g><path d="M61.104,133.84c-2.784,4.664-5.456,9.592-7.936,14.632l14.36,7.064c2.288-4.648,4.752-9.192,7.312-13.496L61.104,133.84z"></path></g><g><path d="M80.312,106.72c-3.576,4.28-6.992,8.712-10.152,13.176l13.064,9.248c2.92-4.136,6.072-8.224,9.368-12.176L80.312,106.72z"></path></g><g><path d="M240.904,32l-0.064,16c5.144,0.024,10.304,0.248,15.344,0.672l1.344-15.936C252.072,32.272,246.48,32.024,240.904,32z"></path></g><g><path d="M274.032,34.776l-2.608,15.784c5.08,0.84,10.136,1.88,15.032,3.112l3.872-15.528    C285.008,36.816,279.528,35.68,274.032,34.776z"></path></g><g><path d="M336.864,55.888l-7.472,14.16c4.488,2.36,8.96,4.952,13.296,7.704l8.56-13.512    C346.56,61.256,341.72,58.456,336.864,55.888z"></path></g><g><path d="M224.288,32.576c-5.544,0.424-11.104,1.064-16.512,1.896l2.456,15.816c5.008-0.784,10.144-1.368,15.264-1.76    L224.288,32.576z"></path></g><g><path d="M159.84,48.008c-5.08,2.128-10.152,4.496-15.072,7.032l7.328,14.216c4.544-2.344,9.232-4.52,13.912-6.48L159.84,48.008z"></path></g><g><path d="M191.456,37.696c-5.352,1.272-10.744,2.8-16.024,4.52l4.968,15.2c4.864-1.584,9.832-2.992,14.76-4.168L191.456,37.696z"></path></g><g><path d="M166.96,419.768l-5.64,14.968c5.176,1.952,10.496,3.72,15.808,5.232l4.408-15.376    C176.648,423.184,171.744,421.56,166.96,419.768z"></path></g><g><path d="M139.224,406.672l-7.968,13.872c4.816,2.76,9.776,5.344,14.752,7.696l6.832-14.472    C148.24,411.6,143.656,409.216,139.224,406.672z"></path></g><g><path d="M196.456,428.224l-3.16,15.688c5.44,1.096,10.96,1.984,16.424,2.64l1.904-15.888    C206.584,430.064,201.488,429.24,196.456,428.224z"></path> </g><g><path d="M93.864,370.56l-11.736,10.872c2.96,3.2,6.04,6.312,9.2,9.328l11.032-11.592C99.44,376.392,96.608,373.512,93.864,370.56z    "></path></g><g><path d="M113.904,389.304l-10.064,12.44c4.328,3.504,8.808,6.848,13.328,9.944l9.048-13.184    C122.056,395.632,117.904,392.544,113.904,389.304z"></path></g></g></svg>