<svg width="50px" height="50px" fill="#4caf50" xmlns="http://www.w3.org/2000/svg" xmlns:xlink="http://www.w3.org/1999/xlink" version="1.1" x="0px" y="0px" viewBox="0 0 480.008 480.008" style="enable-background:new 0 0 480.008 480.008" xml:space="preserve"> <g> <g> <path d="M431.24,216.155c-3.196-15.741-15.499-28.044-31.24-31.24v-88.8c0-13.255-10.745-24-24-24s-24,10.745-24,24v2.848 l-169.728,77.152H56c-30.927,0.21-55.828,25.452-55.618,56.38C0.57,260.041,20.763,283.36,48,287.483v120.632c0,4.418,3.582,8,8,8 h64c4.418,0,8-3.582,8-8v-64.152c22.44-1.22,40.008-19.775,40-42.248v-13.6h14.6l169.4,61.6v2.4c0,13.255,10.745,24,24,24 s24-10.745,24-24v-88.8C421.65,258.919,435.636,237.805,431.24,216.155z M112,400.115H64v-16h16v-16H64v-16h16v-16H64v-16h16v-16 H64v-16h48V400.115z M152,301.715c0.045,13.638-10.407,25.017-24,26.128v-39.728h24V301.715z M176,272.115H56 c-22.091-0.005-39.996-17.917-39.991-40.009c0.002-10.604,4.215-20.772,11.711-28.271c7.483-7.527,17.666-11.747,28.28-11.72h120 V272.115z M352,332.691l-160-58.176v-85.248l160-72.728V332.691z M384,352.115c0,4.418-3.582,8-8,8s-8-3.582-8-8v-8v-248 c0-4.418,3.582-8,8-8s8,3.582,8,8V352.115z M414.68,231.963c-2.396,6.877-7.802,12.284-14.68,14.68v-45.056 C412.442,205.921,419.014,219.521,414.68,231.963z"></path> </g> <g> <path d="M88,208.115c-13.255,0-24,10.745-24,24s10.745,24,24,24s24-10.745,24-24S101.255,208.115,88,208.115z M88,240.115 c-4.418,0-8-3.582-8-8s3.582-8,8-8s8,3.582,8,8S92.418,240.115,88,240.115z" fill="#FFFFFF"></path> </g> <g> <circle cx="224" cy="376.115" r="16"></circle> </g> <g> <path d="M478.657,51.677c0-0.001-0.001-0.001-0.001-0.002c-2.451-3.676-7.418-4.669-11.094-2.217 c-0.001,0-0.001,0.001-0.002,0.001l-48,32c-3.676,2.452-4.668,7.42-2.216,11.096c2.452,3.676,7.42,4.668,11.096,2.216l48-32 C480.116,60.319,481.109,55.352,478.657,51.677z"></path> </g> <g> <path d="M479.548,158.331c-0.966-4.092-4.935-6.738-9.084-6.056H470.4l-40,8c-4.33,0.879-7.127,5.102-6.248,9.432 c0.758,3.731,4.04,6.412,7.848,6.408c0.537,0.003,1.074-0.051,1.6-0.16l40-8C477.9,166.94,480.563,162.631,479.548,158.331z"></path> </g> <g> <path d="M473.6,280.275l-40-8c-4.3-1.015-8.609,1.648-9.624,5.948c-1.015,4.3,1.648,8.609,5.948,9.624 c0.179,0.042,0.359,0.078,0.54,0.108l40,8c0.505,0.105,1.02,0.159,1.536,0.16c4.418,0.004,8.004-3.574,8.008-7.992 C480.012,284.315,477.331,281.033,473.6,280.275z"></path> </g> <g> <path d="M475.576,368.955l-48-24c-3.954-1.975-8.761-0.37-10.736,3.584c-1.975,3.954-0.37,8.761,3.584,10.736l48,24 c3.954,1.975,8.761,0.37,10.736-3.584C481.135,375.737,479.53,370.93,475.576,368.955z"></path> </g> <g> <path d="M85.459,74.459c-3.1-2.994-8.015-2.994-11.115,0l-72,72c-3.124,3.125-3.123,8.19,0.002,11.314 c1.5,1.499,3.534,2.342,5.654,2.342c2.122,0,4.156-0.844,5.656-2.344l72-72C88.725,82.593,88.637,77.528,85.459,74.459z"></path> </g> <g> <circle cx="72" cy="144.115" r="16"></circle> </g> <g> <circle cx="16" cy="88.115" r="16"></circle> </g> <g> <path d="M325.656,402.395l-72-72c-1.51-1.477-3.544-2.297-5.656-2.28h-64c-4.418,0-8,3.582-8,8l0.168,63.832 c0.013,2.101,0.852,4.113,2.336,5.6l72,72c3.122,3.126,8.188,3.129,11.314,0.006c0.002-0.002,0.004-0.004,0.006-0.006 l63.832-63.84C328.779,410.583,328.779,405.519,325.656,402.395z M256.168,460.635l-64-64L192,344.115h52.664l64,64 L256.168,460.635z"></path> </g> <g> <path d="M280,48.115c4.418,0,8-3.582,8-8v-32c0-4.418-3.582-8-8-8H120c-4.418,0-8,3.582-8,8v32c0,4.418,3.582,8,8,8s8,3.582,8,8 s-3.582,8-8,8s-8,3.582-8,8v32c0,4.418,3.582,8,8,8h160c4.418,0,8-3.582,8-8v-32c0-4.418-3.582-8-8-8s-8-3.582-8-8 S275.582,48.115,280,48.115z M272,33.483c-12.499,4.411-19.056,18.12-14.645,30.619c2.416,6.845,7.8,12.229,14.645,14.645v17.368 h-40v-8h-16v8h-88V78.747c12.499-4.411,19.056-18.12,14.645-30.619c-2.416-6.845-7.8-12.229-14.645-14.645V16.115h144V33.483z"></path> </g> <g> <rect x="216" y="24.115" width="16" height="16"></rect> </g> <g> <rect x="216" y="56.115" width="16" height="16"></rect> </g> </g> </svg>