<svg width="50px" height="50px" fill="#dc2e3d" enable-background="new 0 0 496 496" version="1.1" viewBox="0 0 496 496" xml:space="preserve" xmlns="http://www.w3.org/2000/svg"><path d="m488 56h-480c-4.418 0-8 3.582-8 8v320c0 4.418 3.582 8 8 8h169.06l-23.712 35.56c-2.452 3.675-1.461 8.643 2.215 11.095 1.315 0.877 2.86 1.345 4.441 1.345h160c4.418 1e-3 8.001-3.581 8.001-7.999 0-1.581-0.468-3.126-1.345-4.441l-23.712-35.56h185.06c4.418 0 8-3.582 8-8v-320c0-4.418-3.582-8-8-8zm-182.94 368h-130.11l21.336-32h87.44l21.336 32zm174.94-48h-464v-32h464v32zm0-48h-464v-256h464v256z"></path><path d="m264 104h-208c-4.418 3e-3 -7.997 3.587-7.994 8.006 1e-3 0.931 0.164 1.855 0.482 2.73l32 88c1.15 3.159 4.151 5.262 7.512 5.264h120v16h-144c-4.418 0-8 3.582-8 8s3.582 8 8 8h11.056c-13.362 11.567-14.817 31.776-3.25 45.138s31.776 14.817 45.138 3.25 14.817-31.776 3.25-45.138c-1.004-1.16-2.09-2.246-3.25-3.25h62.112c-13.361 11.568-14.814 31.777-3.246 45.138s31.777 14.814 45.138 3.246 14.814-31.777 3.246-45.138c-1.355-1.565-2.859-2.995-4.49-4.27 2.618-1.345 4.273-4.033 4.296-6.976v-112h32v24c0 4.418 3.582 8 8 8s8-3.582 8-8v-32c0-4.418-3.582-8-8-8zm-168 176c-8.837 0-16-7.163-16-16s7.163-16 16-16 16 7.163 16 16-7.163 16-16 16zm-2.4-88-26.176-72h140.58v16h-104c-4.418 0-8 3.582-8 8s3.582 8 8 8h104v40h-114.4zm106.4 88c-8.837 0-16-7.163-16-16s7.163-16 16-16 16 7.163 16 16-7.163 16-16 16z"></path><path d="m440 96h-112c-4.418 0-8 3.582-8 8v48c0 4.418 3.582 8 8 8h112c4.418 0 8-3.582 8-8v-48c0-4.418-3.582-8-8-8zm-8 48h-96v-32h96v32z"></path><rect x="272" y="256" width="16" height="16"></rect><rect x="304" y="256" width="48" height="16"></rect><rect x="272" y="224" width="80" height="16"></rect><rect x="272" y="192" width="16" height="16"></rect><rect x="304" y="192" width="48" height="16"></rect><path d="m440 240h-40v-16h40c4.418 0 8-3.582 8-8s-3.582-8-8-8h-16v-8c0-4.418-3.582-8-8-8s-8 3.582-8 8v8h-16c-4.418 0-8 3.582-8 8v32c0 4.418 3.582 8 8 8h40v16h-40c-4.418 0-8 3.582-8 8s3.582 8 8 8h16v8c0 4.418 3.582 8 8 8s8-3.582 8-8v-8h16c4.418 0 8-3.582 8-8v-32c0-4.418-3.582-8-8-8z"></path></svg>