<svg width="50px" height="50px" fill="#0caec1" xmlns="http://www.w3.org/2000/svg" xmlns:xlink="http://www.w3.org/1999/xlink" version="1.1" x="0px" y="0px" viewBox="0 0 512 512" style="enable-background:new 0 0 512 512" xml:space="preserve"> <g> <g> <path d="M113.057,41.398c-0.001,4.669-0.982,7.974-2.918,9.821c-4.088,3.9-26.873,2.828-29.196,2.828v16.168h21.996v17.723 c0,7.974-6.488,14.462-14.462,14.462h-0.18c-7.973,0-14.461-6.488-14.461-14.462V71.253H57.667v16.685 c0,16.89,13.741,30.631,30.631,30.631h0.18c16.89,0,30.631-13.741,30.631-30.63V64.751c0.755-0.564,1.491-1.165,2.194-1.836 c5.258-5.015,7.924-12.256,7.924-21.518H113.057z"></path> </g> <g> <path d="M88.926,0C39.892,0,0,39.893,0,88.926s39.892,88.926,88.926,88.926s88.926-39.893,88.926-88.926S137.961,0,88.926,0z M143.744,136.687l-24.024-22.022l-10.926,11.918l22.999,21.083c-12.031,8.804-26.848,14.019-42.867,14.019 s-30.835-5.215-42.867-14.019l22.999-21.083l-10.926-11.918l-24.024,22.022c-11.158-12.791-17.94-29.493-17.94-47.76 c0-40.119,32.639-72.758,72.758-72.758s72.758,32.639,72.758,72.758C161.684,107.193,154.902,123.895,143.744,136.687z"></path> </g> <g> <path d="M447.203,375.546c0,4.668-0.981,7.973-2.917,9.82c-4.088,3.9-26.873,2.828-29.196,2.828v16.337h21.996v17.556 c0,7.974-6.488,14.462-14.462,14.462h-0.18c-7.974,0-14.462-6.488-14.462-14.462v-16.685h-16.168v16.685 c0,16.89,13.741,30.631,30.631,30.631h0.18c16.89,0,30.631-13.741,30.631-30.631V398.9c0.755-0.564,1.491-1.165,2.193-1.836 c5.258-5.015,7.924-12.256,7.924-21.518H447.203z"></path> </g> <g> <path d="M423.074,334.147c-49.034,0-88.926,39.893-88.926,88.926c0,49.033,39.892,88.926,88.926,88.926S512,472.107,512,423.074 C512,374.04,472.108,334.147,423.074,334.147z M477.891,470.834l-24.024-22.022l-10.925,11.918l22.999,21.083 c-12.031,8.804-26.848,14.019-42.867,14.019c-16.019,0-30.835-5.215-42.867-14.019l22.999-21.083l-10.926-11.918l-24.024,22.022 c-11.158-12.791-17.94-29.493-17.94-47.76c0-40.119,32.639-72.758,72.758-72.758c40.119,0,72.758,32.639,72.758,72.758 C495.832,441.341,489.049,458.043,477.891,470.834z"></path> </g> <g> <rect x="165.368" y="169.208" transform="matrix(0.6859 -0.7277 0.7277 0.6859 -74.5337 181.9086)" width="16.168" height="16.168"></rect> </g> <g> <rect x="205.085" y="206.634" transform="matrix(0.6859 -0.7277 0.7277 0.6859 -89.2933 222.5665)" width="16.168" height="16.168"></rect> </g> <g> <rect x="249.349" y="248.354" transform="matrix(0.6859 -0.7277 0.7277 0.6859 -105.7495 267.8814)" width="16.168" height="16.168"></rect> </g> <g> <rect x="337.862" y="331.81" transform="matrix(0.6859 -0.7277 0.7277 0.6859 -138.6779 358.5056)" width="16.169" height="16.168"></rect> </g> <g> <rect x="294.682" y="291.13" transform="matrix(0.686 -0.7276 0.7276 0.686 -122.6402 314.2463)" width="16.167" height="16.167"></rect> </g> <g> <path d="M318.251,453.981c-20.089,6.312-41.032,9.513-62.251,9.513c-17.675,0-34.84-2.227-51.232-6.406 c-12.188-16.892-22.546-39.048-30.611-64.735h135.738v-16.168H169.518c-8.847-33.644-14.022-72.143-14.639-112.101h70.733v-16.168 h-70.736c0.285-18.853,1.563-37.517,3.813-55.591l-16.044-1.996c-2.331,18.731-3.651,38.066-3.937,57.588H48.662 c0.709-18.449,3.848-36.633,9.357-54.165l-15.425-4.848C35.788,210.561,32.337,233.136,32.337,256 c0,123.328,100.335,223.663,223.663,223.663c22.863,0,45.439-3.45,67.099-10.257L318.251,453.981z M86.947,376.185 c-22.731-31.881-36.665-70.437-38.27-112.101h90.028c0.577,40.091,5.449,78.287,13.95,112.101H86.947z M99.732,392.354h57.358 c6.383,21.333,14.31,40.562,23.587,56.986C149.267,437.06,121.561,417.339,99.732,392.354z"></path> </g> <g> <path d="M256,32.337c-22.863,0-45.439,3.45-67.097,10.255l4.846,15.426c20.089-6.312,41.032-9.512,62.251-9.512 c17.675,0,34.84,2.227,51.232,6.406c12.188,16.892,22.546,39.048,30.611,64.735H202.105v16.168h140.376 c8.847,33.644,14.022,72.143,14.639,112.101h-68.784v16.168h68.787c-0.285,18.841-1.565,37.503-3.817,55.589l16.044,1.998 c2.334-18.744,3.655-38.079,3.942-57.588h90.046c-0.708,18.463-3.842,36.648-9.344,54.167l15.426,4.844 c6.796-21.639,10.242-44.213,10.242-67.096C479.663,132.672,379.328,32.337,256,32.337z M354.91,119.646 c-6.382-21.333-14.309-40.562-23.586-56.986c31.41,12.279,59.116,32,80.945,56.986H354.91z M373.295,247.916 c-0.578-40.091-5.45-78.287-13.951-112.101h65.71c22.731,31.881,36.665,70.437,38.27,112.101H373.295z"></path> </g> </g> </svg>